<svg width="30" height="30" viewBox="0 0 30 30" fill="none" xmlns="http://www.w3.org/2000/svg">
<g clip-path="url(#clip0)">
<path fill-rule="evenodd" clip-rule="evenodd" d="M14.7534 0.364014C6.60443 0.364014 0 6.98455 0 15.1534C0 21.6872 4.2243 27.2275 10.0911 29.1859C10.8287 29.3188 11.0996 28.8624 11.0996 28.4753C11.0996 28.1229 11.0881 27.1928 11.0823 25.9623C6.97327 26.852 6.10881 23.975 6.10881 23.975C5.4403 22.2649 4.47211 21.8143 4.47211 21.8143C3.13509 20.8958 4.57585 20.9131 4.57585 20.9131C6.05695 21.0171 6.83496 22.4383 6.83496 22.4383C8.14893 24.6971 10.287 24.0443 11.1284 23.6688C11.261 22.7156 11.6413 22.0628 12.0678 21.693C8.78286 21.3175 5.34233 20.0465 5.34233 14.3792C5.34233 12.7674 5.91863 11.4445 6.86377 10.4104C6.71393 10.0349 6.20679 8.53281 7.00785 6.49928C7.00785 6.49928 8.2469 6.10066 11.065 8.01288C12.2407 7.68358 13.5028 7.52182 14.7591 7.51605C16.0097 7.52182 17.2718 7.68358 18.4532 8.01288C21.2714 6.10066 22.5046 6.49928 22.5046 6.49928C23.3115 8.53281 22.8043 10.0406 22.6487 10.4104C23.5939 11.4445 24.1644 12.7616 24.1644 14.3792C24.1644 20.0581 20.7123 21.3117 17.4274 21.6757C17.9576 22.1321 18.4302 23.0333 18.4302 24.414C18.4302 26.3898 18.4129 27.9843 18.4129 28.4695C18.4129 28.8624 18.678 29.3246 19.4272 29.1801C25.2824 27.2275 29.5067 21.6872 29.5067 15.1534C29.5067 6.98455 22.9023 0.364014 14.7534 0.364014Z" fill="white"/>
</g>
<defs>
<clipPath id="clip0">
<rect width="29.5067" height="29.5787" fill="white"/>
</clipPath>
</defs>
</svg>
