<svg width="29" height="29" viewBox="0 0 29 29" fill="none" xmlns="http://www.w3.org/2000/svg">
<path d="M14.5548 2.66414C18.4111 2.66414 18.8637 2.68137 20.3879 2.7503C21.7975 2.81348 22.5595 3.04898 23.0695 3.25002C23.7456 3.51424 24.2269 3.82441 24.7312 4.32987C25.2354 4.83534 25.5506 5.31783 25.8084 5.99561C26.0032 6.50682 26.2439 7.27076 26.3069 8.68377C26.3757 10.2116 26.3929 10.6654 26.3929 14.5311C26.3929 18.3967 26.3757 18.8505 26.3069 20.3784C26.2439 21.7914 26.009 22.5553 25.8084 23.0665C25.5448 23.7443 25.2354 24.2268 24.7312 24.7323C24.2269 25.2377 23.7456 25.5537 23.0695 25.8121C22.5595 26.0074 21.7975 26.2487 20.3879 26.3119C18.8637 26.3808 18.4111 26.398 14.5548 26.398C10.6985 26.398 10.2459 26.3808 8.72171 26.3119C7.31215 26.2487 6.55006 26.0132 6.0401 25.8121C5.36396 25.5479 4.88265 25.2377 4.37841 24.7323C3.87418 24.2268 3.55903 23.7443 3.30118 23.0665C3.10637 22.5553 2.86571 21.7914 2.80268 20.3784C2.73392 18.8505 2.71673 18.3967 2.71673 14.5311C2.71673 10.6654 2.73392 10.2116 2.80268 8.68377C2.86571 7.27076 3.10064 6.50682 3.30118 5.99561C3.56476 5.31783 3.87418 4.83534 4.37841 4.32987C4.88265 3.82441 5.36396 3.50849 6.0401 3.25002C6.55006 3.05472 7.31215 2.81348 8.72171 2.7503C10.2459 2.67562 10.6985 2.66414 14.5548 2.66414ZM14.5548 0.0563965C10.6355 0.0563965 10.1427 0.0736282 8.60138 0.142555C7.06576 0.211482 6.01718 0.458471 5.10039 0.814594C4.14922 1.1822 3.34702 1.68193 2.54483 2.48608C1.74264 3.29022 1.24986 4.10012 0.877416 5.04786C0.522159 5.96689 0.275772 7.01803 0.207012 8.56314C0.138253 10.1025 0.121063 10.5965 0.121063 14.5253C0.121063 18.4542 0.138253 18.9482 0.207012 20.4933C0.275772 22.0326 0.522159 23.0838 0.877416 24.0085C1.24413 24.962 1.74264 25.7662 2.54483 26.5703C3.34702 27.3745 4.15495 27.8685 5.10039 28.2418C6.01718 28.5979 7.06576 28.8449 8.60711 28.9139C10.1485 28.9828 10.6355 29 14.5605 29C18.4855 29 18.9726 28.9828 20.5139 28.9139C22.0496 28.8449 23.0982 28.5979 24.0207 28.2418C24.9718 27.8742 25.774 27.3745 26.5762 26.5703C27.3784 25.7662 27.8712 24.9563 28.2436 24.0085C28.5989 23.0895 28.8453 22.0384 28.914 20.4933C28.9828 18.9482 29 18.4599 29 14.5253C29 10.5907 28.9828 10.1025 28.914 8.5574C28.8453 7.01803 28.5989 5.96689 28.2436 5.04212C27.8769 4.08863 27.3784 3.28448 26.5762 2.48033C25.774 1.67618 24.9661 1.18221 24.0207 0.80885C23.1039 0.452727 22.0553 0.205738 20.5139 0.136811C18.9669 0.0736283 18.4741 0.0563965 14.5548 0.0563965Z" fill="white"/>
<path d="M14.5558 7.09265C10.4647 7.09265 7.14129 10.4184 7.14129 14.5253C7.14129 18.6322 10.4647 21.9579 14.5558 21.9579C18.647 21.9579 21.9704 18.6264 21.9704 14.5253C21.9704 10.4241 18.647 7.09265 14.5558 7.09265ZM14.5558 19.3502C11.8971 19.3502 9.74268 17.1905 9.74268 14.5253C9.74268 11.8601 11.8971 9.70039 14.5558 9.70039C17.2145 9.70039 19.369 11.8601 19.369 14.5253C19.369 17.1905 17.2145 19.3502 14.5558 19.3502Z" fill="white"/>
<path d="M22.2626 8.53451C23.2183 8.53451 23.9931 7.75788 23.9931 6.79985C23.9931 5.84182 23.2183 5.06519 22.2626 5.06519C21.3069 5.06519 20.5322 5.84182 20.5322 6.79985C20.5322 7.75788 21.3069 8.53451 22.2626 8.53451Z" fill="white"/>
</svg>
